<svg xmlns="http://www.w3.org/2000/svg" xmlns:xlink="http://www.w3.org/1999/xlink" width="500" zoomAndPan="magnify" viewBox="0 0 375 374.999991" height="500" preserveAspectRatio="xMidYMid meet" version="1.0"><defs><g/><clipPath id="698fa0c60a"><path d="M 17.648438 134 L 117.398438 134 L 117.398438 241.625 L 17.648438 241.625 Z M 17.648438 134 " clip-rule="nonzero"/></clipPath></defs><g clip-path="url(#698fa0c60a)"><path fill="#ff914d" d="M 67.535156 241.351562 C 64.714844 239.4375 60.726562 233.167969 60.851562 232.40625 C 60.976562 231.644531 63.394531 229.777344 64.195312 226.855469 C 64.78125 224.734375 63.464844 223.144531 62.925781 223.386719 C 62.386719 223.625 61.496094 225.332031 60.289062 227.335938 C 59.082031 229.339844 57.292969 229.730469 56.109375 229.648438 C 54.925781 229.558594 53.570312 228.082031 53.746094 227.011719 C 53.921875 225.945312 55.300781 226.546875 57.355469 225.832031 C 59.414062 225.113281 60.625 221.492188 60.75 220.464844 C 60.878906 219.4375 60.058594 219.210938 59.03125 220.195312 C 58.007812 221.175781 55.828125 222.976562 53.597656 223.519531 C 51.363281 224.0625 49.425781 222.683594 49.378906 221.871094 C 49.394531 220.621094 51.273438 220.699219 53.242188 220.304688 C 55.207031 219.910156 57.828125 217.195312 58.484375 216.011719 C 59.136719 214.832031 58.65625 214.222656 57.761719 214.117188 C 56.867188 214.015625 55.460938 216.367188 53.675781 216.878906 C 51.25 217.578125 49.792969 216.746094 48.355469 215.9375 C 46.921875 215.125 47.894531 213.152344 49.109375 213.246094 C 52.253906 213.492188 53.097656 213.472656 55.671875 211.863281 C 61.097656 208.515625 62.980469 203.375 62.941406 200.652344 C 62.902344 198.195312 61.859375 196.914062 59.332031 198.039062 C 57.320312 198.9375 54.664062 203.964844 53.101562 206.890625 C 51.542969 209.820312 50.351562 210.164062 49.742188 209.996094 C 49.132812 209.824219 46.8125 207.421875 46.8125 207.421875 L 35.566406 210.03125 C 35.566406 210.03125 39.226562 211.507812 39.90625 211.710938 C 41.769531 210.773438 43.234375 212.160156 43.527344 213.390625 C 44.84375 214.472656 44.605469 216.300781 44.28125 216.914062 C 44.253906 216.324219 43.488281 214.925781 42.707031 214.785156 C 38.816406 215.339844 38.808594 213.03125 38.808594 213.03125 L 33.457031 211.167969 C 33.457031 211.167969 29.269531 213.488281 28.207031 214.230469 C 27.238281 217.019531 24.921875 216.460938 24.058594 216.28125 C 23.566406 216.417969 22.550781 217.78125 22.195312 218.640625 C 21.800781 217.824219 22.0625 216.328125 22.710938 215.515625 C 22.875 211.386719 27.347656 212.722656 27.347656 212.722656 L 30.867188 210.625 C 30.867188 210.625 25.570312 210.421875 24.5 210.476562 C 22.308594 211.980469 20.640625 210.824219 20.121094 210.214844 C 19.601562 210.144531 18.570312 210.355469 17.640625 210.867188 C 17.886719 209.613281 19.261719 208.867188 19.988281 208.648438 C 22.675781 206.078125 24.984375 208.957031 24.984375 208.957031 L 31.523438 209.144531 C 31.523438 209.144531 28.425781 206.757812 27.664062 206.21875 C 24.902344 207.242188 23.960938 205.226562 23.644531 204.558594 C 23.332031 203.894531 22.304688 203.714844 20.949219 203.847656 C 21.796875 202.484375 22.90625 202.542969 24.429688 203.046875 C 27.3125 201.699219 28.25 204.757812 28.25 204.757812 L 33.625 208.421875 C 33.625 208.421875 43.230469 205.816406 44.660156 205.382812 C 44.171875 204.992188 42.140625 202.855469 42.289062 202.191406 C 42.441406 201.523438 45.539062 200.855469 48.746094 199.617188 C 51.957031 198.382812 53.5 195.253906 54.613281 193.28125 C 55.726562 191.304688 55.730469 188.710938 54.890625 188.429688 C 54.054688 188.152344 53.480469 189.597656 52.574219 191.488281 C 51.667969 193.378906 49.625 195.464844 48.679688 196.101562 C 47.0625 197.199219 45.28125 195.976562 46.574219 194.699219 C 48.390625 192.90625 48.488281 192.554688 49.546875 190.621094 C 50.601562 188.6875 49.480469 187.101562 48.445312 187.035156 C 47.410156 186.96875 46.785156 188.546875 45.910156 191.21875 C 45.035156 193.894531 43.867188 195.445312 41.695312 197.25 C 39.503906 199.066406 36.988281 197.589844 37.113281 196.402344 C 37.234375 195.214844 39.464844 194.507812 41.394531 193.042969 C 43.324219 191.582031 43.671875 188.121094 43.308594 186.738281 C 42.941406 185.351562 41.019531 186.761719 39.332031 188.8125 C 37.640625 190.867188 33.753906 195.335938 30.480469 198.417969 C 27.207031 201.5 23.550781 199.363281 22.125 198.597656 C 20.703125 197.828125 20.359375 195.367188 21.695312 195.003906 C 26.726562 194.855469 29.222656 193.660156 32.167969 191.746094 C 35.105469 189.828125 38.140625 183.683594 38.265625 183.101562 C 38.386719 182.515625 37.6875 181.339844 36.410156 183.007812 C 35.132812 184.675781 31.675781 187.527344 28.859375 189.300781 C 26.042969 191.074219 22.164062 189.746094 21.035156 189.203125 C 19.902344 188.65625 20.148438 185.410156 21.492188 185.617188 C 26.074219 186.84375 29.3125 185.5625 32.792969 183.101562 C 36.277344 180.644531 37.265625 177.628906 37.3125 176.605469 C 37.359375 175.578125 36.269531 175.605469 35.15625 176.394531 C 34.046875 177.179688 30.761719 179.523438 28.847656 180.566406 C 26.929688 181.609375 23.929688 181.898438 22.011719 180.894531 C 20.097656 179.890625 20.320312 177.054688 21.664062 176.542969 C 23.007812 176.03125 26.53125 176.65625 28.621094 176.148438 C 30.710938 175.640625 35.070312 172.035156 35.734375 171.386719 C 36.402344 170.734375 37.265625 169.429688 36.425781 169.007812 C 35.582031 168.589844 33.382812 170.074219 31.246094 171.261719 C 29.109375 172.445312 26.203125 172.320312 23.550781 172.46875 C 20.898438 172.613281 19.996094 169.089844 20.722656 168.042969 C 21.449219 166.996094 22.84375 167.550781 26.308594 168.664062 C 29.78125 169.777344 35.003906 166.046875 36.476562 164.773438 C 37.949219 163.507812 37.175781 162.453125 36.449219 162.203125 C 35.71875 161.953125 33.035156 163.574219 29.636719 164.53125 C 26.238281 165.492188 22.996094 163.96875 21.542969 162.417969 C 20.089844 160.863281 20.050781 158.175781 21.148438 157.792969 C 22.703125 157.320312 23.425781 159.070312 26.347656 160.40625 C 29.269531 161.742188 32.808594 160.03125 34.53125 159.304688 C 36.257812 158.582031 37.269531 156.90625 36.851562 156.234375 C 36.433594 155.5625 34.597656 155.957031 29.71875 156.417969 C 22.0625 156.46875 20.882812 151.992188 20.367188 150.660156 C 19.847656 149.328125 21.183594 147.960938 23.226562 149.144531 C 29.203125 153.152344 33.550781 152.722656 35.566406 152.164062 C 37.585938 151.605469 36.902344 150.007812 35.355469 149.410156 C 33.8125 148.8125 30.925781 148.570312 26.878906 146.800781 C 22.835938 145.027344 20.71875 141.445312 20.078125 139.214844 C 19.433594 136.988281 22.140625 135.285156 22.878906 135.867188 C 23.621094 136.449219 25.230469 139.105469 28.164062 141.847656 C 31.097656 144.589844 35.890625 145.417969 37.140625 145.714844 C 37.363281 145.324219 37.601562 144.164062 38.582031 144.074219 C 41.425781 144.398438 48.816406 148.839844 49.902344 149.96875 C 50.992188 151.09375 50.257812 154.390625 51.085938 156.960938 C 51.914062 159.535156 55.125 158.988281 56.367188 158.527344 C 57.609375 158.066406 58.65625 155.789062 58.226562 153.289062 C 57.089844 148.589844 53.09375 146.183594 51.828125 145.480469 C 50.566406 144.773438 46.867188 143.734375 44.769531 143.460938 C 42.671875 143.191406 40.992188 141.851562 40.636719 141.257812 C 44.023438 143.195312 46.820312 141.15625 46.351562 141.035156 C 45.671875 140.839844 42.898438 140.972656 41.402344 140.894531 C 39.90625 140.820312 37.253906 139.878906 36.242188 138.757812 C 35.230469 137.632812 36.464844 136.257812 37.097656 136.828125 C 39.816406 139.859375 41.015625 139.785156 42.132812 139.996094 C 43.25 140.203125 44.503906 140.09375 45.621094 139.945312 C 42.707031 136.597656 41.050781 138.097656 40.335938 138.863281 C 40.195312 135.320312 44 135.875 45.527344 136.019531 C 45.980469 134.414062 49.597656 133.628906 52.265625 134.566406 C 54.652344 135.574219 59.773438 136.675781 61.207031 136.941406 C 60.777344 137.316406 59.128906 138.679688 57.96875 139.234375 C 59.886719 139.75 61.996094 141.941406 62.980469 143.214844 C 61.738281 142.910156 60.5625 143.484375 59.554688 143.394531 C 63.566406 144.382812 63.894531 145.382812 65.1875 146.355469 C 64.683594 146.253906 63.644531 146.386719 63.476562 147.046875 C 64.5625 147.675781 67.535156 151.292969 67.535156 151.292969 C 67.535156 151.292969 70.503906 147.675781 71.59375 147.046875 C 71.425781 146.386719 70.382812 146.253906 69.882812 146.355469 C 71.171875 145.382812 71.5 144.382812 75.511719 143.394531 C 74.503906 143.484375 73.328125 142.910156 72.089844 143.214844 C 73.074219 141.941406 75.179688 139.75 77.101562 139.234375 C 75.941406 138.679688 74.289062 137.316406 73.859375 136.941406 C 75.292969 136.675781 80.417969 135.574219 82.800781 134.566406 C 85.472656 133.628906 89.089844 134.414062 89.542969 136.019531 C 91.070312 135.875 94.871094 135.320312 94.730469 138.863281 C 94.019531 138.097656 92.359375 136.597656 89.449219 139.945312 C 90.5625 140.09375 91.820312 140.203125 92.933594 139.996094 C 94.050781 139.785156 95.25 139.859375 97.972656 136.828125 C 98.601562 136.257812 99.839844 137.632812 98.824219 138.757812 C 97.8125 139.878906 95.164062 140.820312 93.667969 140.894531 C 92.171875 140.972656 89.394531 140.839844 88.71875 141.035156 C 88.246094 141.15625 91.046875 143.195312 94.429688 141.257812 C 94.074219 141.851562 92.398438 143.191406 90.300781 143.460938 C 88.203125 143.734375 84.503906 144.773438 83.238281 145.480469 C 81.976562 146.183594 77.980469 148.589844 76.839844 153.289062 C 76.414062 155.789062 77.460938 158.066406 78.703125 158.527344 C 79.941406 158.988281 83.15625 159.535156 83.980469 156.960938 C 84.808594 154.390625 84.078125 151.09375 85.164062 149.96875 C 86.253906 148.839844 93.644531 144.398438 96.488281 144.074219 C 97.46875 144.164062 97.703125 145.324219 97.925781 145.714844 C 99.179688 145.417969 103.96875 144.589844 106.902344 141.847656 C 109.839844 139.105469 111.445312 136.449219 112.1875 135.867188 C 112.925781 135.285156 115.632812 136.988281 114.992188 139.214844 C 114.351562 141.445312 112.234375 145.027344 108.1875 146.800781 C 104.144531 148.570312 101.257812 148.8125 99.710938 149.410156 C 98.167969 150.007812 97.484375 151.605469 99.5 152.164062 C 101.515625 152.722656 105.867188 153.152344 111.839844 149.144531 C 113.882812 147.960938 115.222656 149.328125 114.703125 150.660156 C 114.183594 151.992188 113.003906 156.46875 105.347656 156.417969 C 100.46875 155.957031 98.636719 155.5625 98.214844 156.234375 C 97.796875 156.90625 98.8125 158.582031 100.535156 159.304688 C 102.261719 160.03125 105.796875 161.742188 108.722656 160.40625 C 111.644531 159.070312 112.367188 157.320312 113.921875 157.792969 C 115.019531 158.175781 114.976562 160.863281 113.527344 162.417969 C 112.070312 163.96875 108.828125 165.492188 105.429688 164.53125 C 102.03125 163.574219 99.347656 161.953125 98.621094 162.203125 C 97.894531 162.453125 97.121094 163.507812 98.59375 164.773438 C 100.066406 166.046875 105.289062 169.777344 108.757812 168.664062 C 112.226562 167.550781 113.617188 166.996094 114.347656 168.042969 C 115.074219 169.089844 114.171875 172.613281 111.519531 172.46875 C 108.863281 172.320312 105.960938 172.445312 103.824219 171.261719 C 101.683594 170.074219 99.484375 168.589844 98.644531 169.007812 C 97.800781 169.429688 98.667969 170.734375 99.332031 171.386719 C 100 172.035156 104.359375 175.640625 106.449219 176.148438 C 108.539062 176.65625 112.058594 176.03125 113.402344 176.542969 C 114.746094 177.054688 114.972656 179.890625 113.054688 180.894531 C 111.140625 181.898438 108.140625 181.609375 106.222656 180.566406 C 104.304688 179.523438 101.019531 177.179688 99.910156 176.394531 C 98.800781 175.605469 97.710938 175.578125 97.753906 176.605469 C 97.800781 177.628906 98.792969 180.644531 102.273438 183.101562 C 105.753906 185.5625 108.996094 186.84375 113.574219 185.617188 C 114.917969 185.410156 115.167969 188.65625 114.035156 189.203125 C 112.902344 189.746094 109.027344 191.074219 106.210938 189.300781 C 103.390625 187.527344 99.933594 184.675781 98.65625 183.007812 C 97.382812 181.339844 96.683594 182.515625 96.804688 183.101562 C 96.925781 183.683594 99.960938 189.828125 102.902344 191.746094 C 105.84375 193.660156 108.339844 194.855469 113.371094 195.003906 C 114.707031 195.367188 114.363281 197.828125 112.941406 198.597656 C 111.519531 199.363281 107.863281 201.5 104.589844 198.417969 C 101.3125 195.335938 97.425781 190.867188 95.738281 188.8125 C 94.046875 186.761719 92.125 185.351562 91.761719 186.738281 C 91.394531 188.121094 91.742188 191.582031 93.671875 193.042969 C 95.601562 194.507812 97.832031 195.214844 97.957031 196.402344 C 98.078125 197.589844 95.566406 199.066406 93.371094 197.25 C 91.199219 195.445312 90.035156 193.894531 89.15625 191.21875 C 88.28125 188.546875 87.65625 186.96875 86.621094 187.035156 C 85.585938 187.101562 84.464844 188.6875 85.523438 190.621094 C 86.578125 192.554688 86.675781 192.90625 88.492188 194.699219 C 89.789062 195.976562 88.003906 197.199219 86.386719 196.101562 C 85.445312 195.464844 83.398438 193.378906 82.492188 191.488281 C 81.589844 189.597656 81.011719 188.152344 80.175781 188.429688 C 79.339844 188.710938 79.34375 191.304688 80.457031 193.28125 C 81.570312 195.253906 83.113281 198.382812 86.320312 199.617188 C 89.53125 200.855469 92.628906 201.523438 92.777344 202.191406 C 92.925781 202.855469 90.894531 204.992188 90.410156 205.382812 C 91.839844 205.816406 101.445312 208.421875 101.445312 208.421875 L 106.820312 204.757812 C 106.820312 204.757812 107.757812 201.699219 110.636719 203.046875 C 112.160156 202.542969 113.269531 202.484375 114.117188 203.847656 C 112.761719 203.714844 111.738281 203.894531 111.421875 204.558594 C 111.109375 205.226562 110.167969 207.242188 107.402344 206.21875 C 106.644531 206.757812 103.546875 209.144531 103.546875 209.144531 L 110.085938 208.957031 C 110.085938 208.957031 112.394531 206.078125 115.078125 208.648438 C 115.808594 208.867188 117.183594 209.613281 117.425781 210.867188 C 116.5 210.355469 115.464844 210.144531 114.949219 210.214844 C 114.425781 210.824219 112.757812 211.980469 110.570312 210.476562 C 109.5 210.421875 104.203125 210.625 104.203125 210.625 L 107.722656 212.722656 C 107.722656 212.722656 112.191406 211.386719 112.355469 215.515625 C 113.003906 216.328125 113.269531 217.824219 112.871094 218.640625 C 112.519531 217.78125 111.5 216.417969 111.011719 216.28125 C 110.148438 216.460938 107.828125 217.019531 106.859375 214.230469 C 105.800781 213.488281 101.613281 211.167969 101.613281 211.167969 L 96.257812 213.03125 C 96.257812 213.03125 96.25 215.339844 92.359375 214.785156 C 91.578125 214.925781 90.816406 216.324219 90.785156 216.914062 C 90.464844 216.300781 90.222656 214.472656 91.539062 213.390625 C 91.832031 212.160156 93.296875 210.773438 95.164062 211.710938 C 95.839844 211.507812 99.503906 210.03125 99.503906 210.03125 L 88.257812 207.421875 C 88.257812 207.421875 85.9375 209.824219 85.328125 209.996094 C 84.71875 210.164062 83.523438 209.820312 81.964844 206.890625 C 80.402344 203.964844 77.75 198.9375 75.734375 198.039062 C 73.210938 196.914062 72.164062 198.195312 72.128906 200.652344 C 72.085938 203.375 73.972656 208.515625 79.398438 211.863281 C 81.972656 213.472656 82.8125 213.492188 85.960938 213.246094 C 87.171875 213.152344 88.148438 215.125 86.710938 215.9375 C 85.273438 216.746094 83.820312 217.578125 81.390625 216.878906 C 79.605469 216.367188 78.203125 214.015625 77.308594 214.117188 C 76.414062 214.222656 75.933594 214.832031 76.585938 216.011719 C 77.238281 217.195312 79.859375 219.910156 81.828125 220.304688 C 83.792969 220.699219 85.671875 220.621094 85.691406 221.871094 C 85.644531 222.683594 83.707031 224.0625 81.472656 223.519531 C 79.238281 222.976562 77.0625 221.175781 76.035156 220.195312 C 75.011719 219.210938 74.191406 219.4375 74.316406 220.464844 C 74.441406 221.492188 75.65625 225.113281 77.710938 225.832031 C 79.769531 226.546875 81.144531 225.945312 81.320312 227.011719 C 81.496094 228.082031 80.144531 229.558594 78.960938 229.648438 C 77.777344 229.730469 75.984375 229.339844 74.78125 227.335938 C 73.574219 225.332031 72.679688 223.625 72.144531 223.386719 C 71.605469 223.144531 70.289062 224.734375 70.871094 226.855469 C 71.675781 229.777344 74.089844 231.644531 74.214844 232.40625 C 74.339844 233.167969 70.355469 239.4375 67.535156 241.351562 Z M 84.863281 137.222656 C 85.976562 137.222656 86.878906 137.722656 86.878906 138.34375 C 86.878906 138.964844 85.976562 139.46875 84.863281 139.46875 C 83.75 139.46875 82.847656 138.964844 82.847656 138.34375 C 82.847656 137.722656 83.75 137.222656 84.863281 137.222656 Z M 50.195312 137.222656 C 51.304688 137.222656 52.210938 137.722656 52.210938 138.34375 C 52.210938 138.964844 51.304688 139.46875 50.195312 139.46875 C 49.082031 139.46875 48.175781 138.964844 48.175781 138.34375 C 48.175781 137.722656 49.082031 137.222656 50.195312 137.222656 " fill-opacity="1" fill-rule="evenodd"/></g><g fill="#ffffff" fill-opacity="1"><g transform="translate(121.211056, 180.509211)"><g><path d="M 25.03125 0 L 20.046875 0 C 19.640625 0 19.390625 -0.21875 19.296875 -0.65625 L 17.96875 -7.53125 L 9.59375 -7.53125 L 8.328125 -0.65625 C 8.234375 -0.21875 7.984375 0 7.578125 0 L 2.546875 0 C 1.972656 0 1.765625 -0.265625 1.921875 -0.796875 L 9.734375 -36.984375 C 9.828125 -37.421875 10.09375 -37.640625 10.53125 -37.640625 L 17.078125 -37.640625 C 17.515625 -37.640625 17.78125 -37.421875 17.875 -36.984375 L 25.6875 -0.796875 C 25.78125 -0.265625 25.5625 0 25.03125 0 Z M 16.796875 -12.984375 L 13.78125 -29.40625 L 10.78125 -12.984375 Z M 16.796875 -12.984375 "/></g></g></g><g fill="#ffffff" fill-opacity="1"><g transform="translate(149.72542, 180.509211)"><g><path d="M 8.75 -6.203125 L 8.75 -36.890625 C 8.75 -37.390625 8.5 -37.640625 8 -37.640625 L 3.109375 -37.640625 C 2.609375 -37.640625 2.359375 -37.390625 2.359375 -36.890625 L 2.359375 -0.75 C 2.359375 -0.25 2.609375 0 3.109375 0 L 19.953125 0 C 20.453125 0 20.703125 -0.25 20.703125 -0.75 L 20.703125 -5.453125 C 20.703125 -5.953125 20.453125 -6.203125 19.953125 -6.203125 Z M 8.75 -6.203125 "/></g></g></g><g fill="#ffffff" fill-opacity="1"><g transform="translate(173.722659, 180.509211)"><g><path d="M 21.21875 -30.859375 L 21.21875 -22.203125 C 21.21875 -21.328125 20.9375 -20.585938 20.375 -19.984375 C 19.8125 -19.390625 19.101562 -19.015625 18.25 -18.859375 L 18.25 -18.765625 C 19.101562 -18.640625 19.8125 -18.269531 20.375 -17.65625 C 20.9375 -17.050781 21.21875 -16.3125 21.21875 -15.4375 L 21.21875 -6.78125 C 21.21875 -4.582031 20.632812 -2.898438 19.46875 -1.734375 C 18.3125 -0.578125 16.617188 0 14.390625 0 L 3.109375 0 C 2.609375 0 2.359375 -0.25 2.359375 -0.75 L 2.359375 -36.890625 C 2.359375 -37.390625 2.609375 -37.640625 3.109375 -37.640625 L 14.390625 -37.640625 C 16.617188 -37.640625 18.3125 -37.066406 19.46875 -35.921875 C 20.632812 -34.773438 21.21875 -33.085938 21.21875 -30.859375 Z M 14.953125 -23.765625 L 14.953125 -29.546875 C 14.953125 -30.796875 14.328125 -31.421875 13.078125 -31.421875 L 8.796875 -31.421875 L 8.796875 -21.921875 L 13.078125 -21.921875 C 14.328125 -21.921875 14.953125 -22.535156 14.953125 -23.765625 Z M 14.953125 -8.09375 L 14.953125 -13.828125 C 14.953125 -15.085938 14.328125 -15.71875 13.078125 -15.71875 L 8.796875 -15.71875 L 8.796875 -6.203125 L 13.078125 -6.203125 C 14.328125 -6.203125 14.953125 -6.832031 14.953125 -8.09375 Z M 14.953125 -8.09375 "/></g></g></g><g fill="#ffffff" fill-opacity="1"><g transform="translate(121.211056, 229.915254)"><g><path d="M 21.6875 -30.859375 L 21.6875 -19.390625 C 21.6875 -16.242188 20.539062 -14.171875 18.25 -13.171875 L 21.5 -0.84375 C 21.65625 -0.28125 21.4375 0 20.84375 0 L 15.953125 0 C 15.515625 0 15.25 -0.21875 15.15625 -0.65625 L 12 -12.609375 L 8.75 -12.609375 L 8.75 -0.75 C 8.75 -0.25 8.5 0 8 0 L 3.109375 0 C 2.609375 0 2.359375 -0.25 2.359375 -0.75 L 2.359375 -36.890625 C 2.359375 -37.390625 2.609375 -37.640625 3.109375 -37.640625 L 14.90625 -37.640625 C 17.132812 -37.640625 18.820312 -37.066406 19.96875 -35.921875 C 21.113281 -34.773438 21.6875 -33.085938 21.6875 -30.859375 Z M 8.75 -18.8125 L 13.40625 -18.8125 C 14.664062 -18.8125 15.296875 -19.441406 15.296875 -20.703125 L 15.296875 -29.546875 C 15.296875 -30.796875 14.664062 -31.421875 13.40625 -31.421875 L 8.75 -31.421875 Z M 8.75 -18.8125 "/></g></g></g><g fill="#ffffff" fill-opacity="1"><g transform="translate(146.196417, 229.915254)"><g><path d="M 21.125 -36.890625 L 21.125 -32.1875 C 21.125 -31.644531 20.875 -31.375 20.375 -31.375 L 8.609375 -31.375 L 8.609375 -21.96875 L 17.59375 -21.96875 C 18.09375 -21.96875 18.34375 -21.703125 18.34375 -21.171875 L 18.34375 -16.515625 C 18.34375 -15.984375 18.09375 -15.71875 17.59375 -15.71875 L 8.609375 -15.71875 L 8.609375 -6.203125 L 20.375 -6.203125 C 20.875 -6.203125 21.125 -5.953125 21.125 -5.453125 L 21.125 -0.75 C 21.125 -0.25 20.875 0 20.375 0 L 3.0625 0 C 2.59375 0 2.359375 -0.25 2.359375 -0.75 L 2.359375 -36.890625 C 2.359375 -37.390625 2.59375 -37.640625 3.0625 -37.640625 L 20.375 -37.640625 C 20.875 -37.640625 21.125 -37.390625 21.125 -36.890625 Z M 21.125 -36.890625 "/></g></g></g><g fill="#ffffff" fill-opacity="1"><g transform="translate(170.617135, 229.915254)"><g><path d="M 16.796875 -37.640625 L 21.6875 -37.640625 C 22.1875 -37.640625 22.4375 -37.390625 22.4375 -36.890625 L 22.4375 -0.75 C 22.4375 -0.25 22.1875 0 21.6875 0 L 17.03125 0 C 16.59375 0 16.3125 -0.203125 16.1875 -0.609375 L 8.984375 -20.703125 L 8.75 -20.703125 L 8.75 -0.75 C 8.75 -0.25 8.5 0 8 0 L 3.109375 0 C 2.609375 0 2.359375 -0.25 2.359375 -0.75 L 2.359375 -36.890625 C 2.359375 -37.390625 2.609375 -37.640625 3.109375 -37.640625 L 7.765625 -37.640625 C 8.203125 -37.640625 8.484375 -37.4375 8.609375 -37.03125 L 15.765625 -17.03125 L 16.046875 -17.03125 L 16.046875 -36.890625 C 16.046875 -37.390625 16.296875 -37.640625 16.796875 -37.640625 Z M 16.796875 -37.640625 "/></g></g></g><g fill="#ffffff" fill-opacity="1"><g transform="translate(196.355351, 229.915254)"><g><path d="M 2.359375 -6.78125 L 2.359375 -30.859375 C 2.359375 -33.085938 2.9375 -34.773438 4.09375 -35.921875 C 5.25 -37.066406 6.925781 -37.640625 9.125 -37.640625 L 14.390625 -37.640625 C 16.617188 -37.640625 18.304688 -37.066406 19.453125 -35.921875 C 20.597656 -34.773438 21.171875 -33.085938 21.171875 -30.859375 L 21.171875 -6.78125 C 21.171875 -4.582031 20.597656 -2.898438 19.453125 -1.734375 C 18.304688 -0.578125 16.617188 0 14.390625 0 L 9.125 0 C 6.925781 0 5.25 -0.578125 4.09375 -1.734375 C 2.9375 -2.898438 2.359375 -4.582031 2.359375 -6.78125 Z M 10.484375 -6.0625 L 13.21875 -6.0625 C 14.476562 -6.0625 15.109375 -6.691406 15.109375 -7.953125 L 15.109375 -29.6875 C 15.109375 -30.9375 14.476562 -31.5625 13.21875 -31.5625 L 10.484375 -31.5625 C 9.234375 -31.5625 8.609375 -30.9375 8.609375 -29.6875 L 8.609375 -7.953125 C 8.609375 -6.691406 9.234375 -6.0625 10.484375 -6.0625 Z M 10.484375 -6.0625 "/></g></g></g><g fill="#ffffff" fill-opacity="1"><g transform="translate(220.823123, 229.915254)"><g><path d="M 18.765625 -37.640625 L 23.234375 -37.640625 C 23.960938 -37.640625 24.25 -37.296875 24.09375 -36.609375 L 16.140625 -0.84375 C 16.015625 -0.28125 15.671875 0 15.109375 0 L 10.390625 0 C 9.859375 0 9.515625 -0.28125 9.359375 -0.84375 L 1.453125 -36.609375 C 1.296875 -37.296875 1.582031 -37.640625 2.3125 -37.640625 L 6.78125 -37.640625 C 7.34375 -37.640625 7.6875 -37.359375 7.8125 -36.796875 L 12.75 -11.578125 L 17.734375 -36.796875 C 17.890625 -37.359375 18.234375 -37.640625 18.765625 -37.640625 Z M 18.765625 -37.640625 "/></g></g></g><g fill="#ffffff" fill-opacity="1"><g transform="translate(247.314185, 229.915254)"><g><path d="M 25.03125 0 L 20.046875 0 C 19.640625 0 19.390625 -0.21875 19.296875 -0.65625 L 17.96875 -7.53125 L 9.59375 -7.53125 L 8.328125 -0.65625 C 8.234375 -0.21875 7.984375 0 7.578125 0 L 2.546875 0 C 1.972656 0 1.765625 -0.265625 1.921875 -0.796875 L 9.734375 -36.984375 C 9.828125 -37.421875 10.09375 -37.640625 10.53125 -37.640625 L 17.078125 -37.640625 C 17.515625 -37.640625 17.78125 -37.421875 17.875 -36.984375 L 25.6875 -0.796875 C 25.78125 -0.265625 25.5625 0 25.03125 0 Z M 16.796875 -12.984375 L 13.78125 -29.40625 L 10.78125 -12.984375 Z M 16.796875 -12.984375 "/></g></g></g><g fill="#ffffff" fill-opacity="1"><g transform="translate(275.828549, 229.915254)"><g><path d="M 2.171875 -37.640625 L 19.484375 -37.640625 C 19.984375 -37.640625 20.234375 -37.390625 20.234375 -36.890625 L 20.234375 -32.1875 C 20.234375 -31.675781 19.984375 -31.421875 19.484375 -31.421875 L 14.015625 -31.421875 L 14.015625 -0.75 C 14.015625 -0.25 13.765625 0 13.265625 0 L 8.375 0 C 7.875 0 7.625 -0.25 7.625 -0.75 L 7.625 -31.421875 L 2.171875 -31.421875 C 1.660156 -31.421875 1.40625 -31.675781 1.40625 -32.1875 L 1.40625 -36.890625 C 1.40625 -37.390625 1.660156 -37.640625 2.171875 -37.640625 Z M 2.171875 -37.640625 "/></g></g></g><g fill="#ffffff" fill-opacity="1"><g transform="translate(298.414183, 229.915254)"><g><path d="M 3.109375 -37.640625 L 8 -37.640625 C 8.5 -37.640625 8.75 -37.390625 8.75 -36.890625 L 8.75 -0.75 C 8.75 -0.25 8.5 0 8 0 L 3.109375 0 C 2.609375 0 2.359375 -0.25 2.359375 -0.75 L 2.359375 -36.890625 C 2.359375 -37.390625 2.609375 -37.640625 3.109375 -37.640625 Z M 3.109375 -37.640625 "/></g></g></g><g fill="#ffffff" fill-opacity="1"><g transform="translate(310.459856, 229.915254)"><g><path d="M 2.359375 -6.78125 L 2.359375 -30.859375 C 2.359375 -33.085938 2.9375 -34.773438 4.09375 -35.921875 C 5.25 -37.066406 6.925781 -37.640625 9.125 -37.640625 L 14.390625 -37.640625 C 16.617188 -37.640625 18.304688 -37.066406 19.453125 -35.921875 C 20.597656 -34.773438 21.171875 -33.085938 21.171875 -30.859375 L 21.171875 -6.78125 C 21.171875 -4.582031 20.597656 -2.898438 19.453125 -1.734375 C 18.304688 -0.578125 16.617188 0 14.390625 0 L 9.125 0 C 6.925781 0 5.25 -0.578125 4.09375 -1.734375 C 2.9375 -2.898438 2.359375 -4.582031 2.359375 -6.78125 Z M 10.484375 -6.0625 L 13.21875 -6.0625 C 14.476562 -6.0625 15.109375 -6.691406 15.109375 -7.953125 L 15.109375 -29.6875 C 15.109375 -30.9375 14.476562 -31.5625 13.21875 -31.5625 L 10.484375 -31.5625 C 9.234375 -31.5625 8.609375 -30.9375 8.609375 -29.6875 L 8.609375 -7.953125 C 8.609375 -6.691406 9.234375 -6.0625 10.484375 -6.0625 Z M 10.484375 -6.0625 "/></g></g></g><g fill="#ffffff" fill-opacity="1"><g transform="translate(334.927628, 229.915254)"><g><path d="M 16.796875 -37.640625 L 21.6875 -37.640625 C 22.1875 -37.640625 22.4375 -37.390625 22.4375 -36.890625 L 22.4375 -0.75 C 22.4375 -0.25 22.1875 0 21.6875 0 L 17.03125 0 C 16.59375 0 16.3125 -0.203125 16.1875 -0.609375 L 8.984375 -20.703125 L 8.75 -20.703125 L 8.75 -0.75 C 8.75 -0.25 8.5 0 8 0 L 3.109375 0 C 2.609375 0 2.359375 -0.25 2.359375 -0.75 L 2.359375 -36.890625 C 2.359375 -37.390625 2.609375 -37.640625 3.109375 -37.640625 L 7.765625 -37.640625 C 8.203125 -37.640625 8.484375 -37.4375 8.609375 -37.03125 L 15.765625 -17.03125 L 16.046875 -17.03125 L 16.046875 -36.890625 C 16.046875 -37.390625 16.296875 -37.640625 16.796875 -37.640625 Z M 16.796875 -37.640625 "/></g></g></g></svg>