<svg xmlns="http://www.w3.org/2000/svg" xmlns:xlink="http://www.w3.org/1999/xlink" width="500" zoomAndPan="magnify" viewBox="0 0 375 374.999991" height="500" preserveAspectRatio="xMidYMid meet" version="1.0"><defs><g/><clipPath id="50f06aed8c"><path d="M 107.414062 106.203125 L 267.914062 106.203125 L 267.914062 214.203125 L 107.414062 214.203125 Z M 107.414062 106.203125 " clip-rule="nonzero"/></clipPath><clipPath id="37592f005f"><path d="M 108 177 L 267.914062 177 L 267.914062 200 L 108 200 Z M 108 177 " clip-rule="nonzero"/></clipPath></defs><g fill="#151717" fill-opacity="1"><g transform="translate(71.631869, 248.546439)"><g><path d="M 11.03125 0.25 C 9.707031 0.25 8.472656 0.00390625 7.328125 -0.484375 C 6.191406 -0.984375 5.1875 -1.671875 4.3125 -2.546875 C 3.4375 -3.421875 2.75 -4.425781 2.25 -5.5625 C 1.757812 -6.707031 1.515625 -7.941406 1.515625 -9.265625 C 1.515625 -10.578125 1.757812 -11.804688 2.25 -12.953125 C 2.75 -14.097656 3.4375 -15.109375 4.3125 -15.984375 C 5.1875 -16.859375 6.191406 -17.539062 7.328125 -18.03125 C 8.472656 -18.53125 9.707031 -18.78125 11.03125 -18.78125 C 12.789062 -18.78125 14.398438 -18.335938 15.859375 -17.453125 C 17.328125 -16.566406 18.472656 -15.398438 19.296875 -13.953125 L 17.59375 -13 C 16.957031 -14.15625 16.054688 -15.078125 14.890625 -15.765625 C 13.734375 -16.453125 12.445312 -16.796875 11.03125 -16.796875 C 9.644531 -16.796875 8.378906 -16.460938 7.234375 -15.796875 C 6.097656 -15.128906 5.1875 -14.222656 4.5 -13.078125 C 3.820312 -11.929688 3.484375 -10.660156 3.484375 -9.265625 C 3.484375 -7.859375 3.820312 -6.582031 4.5 -5.4375 C 5.1875 -4.300781 6.097656 -3.398438 7.234375 -2.734375 C 8.378906 -2.066406 9.644531 -1.734375 11.03125 -1.734375 C 12.445312 -1.734375 13.734375 -2.082031 14.890625 -2.78125 C 16.054688 -3.476562 16.957031 -4.394531 17.59375 -5.53125 L 19.296875 -4.5625 C 18.472656 -3.125 17.328125 -1.960938 15.859375 -1.078125 C 14.398438 -0.191406 12.789062 0.25 11.03125 0.25 Z M 11.03125 0.25 "/></g></g></g><g fill="#151717" fill-opacity="1"><g transform="translate(101.499385, 248.546439)"><g><path d="M 11.03125 0.25 C 9.707031 0.25 8.472656 0.00390625 7.328125 -0.484375 C 6.191406 -0.984375 5.1875 -1.671875 4.3125 -2.546875 C 3.4375 -3.421875 2.75 -4.425781 2.25 -5.5625 C 1.757812 -6.707031 1.515625 -7.941406 1.515625 -9.265625 C 1.515625 -10.578125 1.757812 -11.804688 2.25 -12.953125 C 2.75 -14.097656 3.4375 -15.109375 4.3125 -15.984375 C 5.1875 -16.859375 6.191406 -17.539062 7.328125 -18.03125 C 8.472656 -18.53125 9.707031 -18.78125 11.03125 -18.78125 C 12.34375 -18.78125 13.570312 -18.53125 14.71875 -18.03125 C 15.875 -17.539062 16.882812 -16.859375 17.75 -15.984375 C 18.613281 -15.109375 19.289062 -14.097656 19.78125 -12.953125 C 20.28125 -11.804688 20.53125 -10.578125 20.53125 -9.265625 C 20.53125 -7.941406 20.28125 -6.707031 19.78125 -5.5625 C 19.289062 -4.425781 18.613281 -3.421875 17.75 -2.546875 C 16.882812 -1.671875 15.875 -0.984375 14.71875 -0.484375 C 13.570312 0.00390625 12.34375 0.25 11.03125 0.25 Z M 11.03125 -1.734375 C 12.425781 -1.734375 13.691406 -2.066406 14.828125 -2.734375 C 15.972656 -3.398438 16.878906 -4.300781 17.546875 -5.4375 C 18.222656 -6.582031 18.5625 -7.859375 18.5625 -9.265625 C 18.5625 -10.660156 18.222656 -11.929688 17.546875 -13.078125 C 16.878906 -14.222656 15.972656 -15.128906 14.828125 -15.796875 C 13.691406 -16.460938 12.425781 -16.796875 11.03125 -16.796875 C 9.644531 -16.796875 8.378906 -16.460938 7.234375 -15.796875 C 6.097656 -15.128906 5.1875 -14.222656 4.5 -13.078125 C 3.820312 -11.929688 3.484375 -10.660156 3.484375 -9.265625 C 3.484375 -7.859375 3.820312 -6.582031 4.5 -5.4375 C 5.1875 -4.300781 6.097656 -3.398438 7.234375 -2.734375 C 8.378906 -2.066406 9.644531 -1.734375 11.03125 -1.734375 Z M 11.03125 -1.734375 "/></g></g></g><g fill="#151717" fill-opacity="1"><g transform="translate(133.126155, 248.546439)"><g><path d="M 15.5625 -18.53125 L 17.515625 -18.53125 L 17.515625 0 L 15.65625 0 L 4.234375 -15.21875 L 4.234375 0 L 2.25 0 L 2.25 -18.53125 L 4.109375 -18.53125 L 15.5625 -3.296875 Z M 15.5625 -18.53125 "/></g></g></g><g fill="#151717" fill-opacity="1"><g transform="translate(162.438117, 248.546439)"><g><path d="M 6.921875 0.25 C 5.535156 0.25 4.300781 -0.09375 3.21875 -0.78125 C 2.144531 -1.476562 1.367188 -2.390625 0.890625 -3.515625 L 2.6875 -4.5625 C 3.019531 -3.71875 3.550781 -3.035156 4.28125 -2.515625 C 5.007812 -1.992188 5.898438 -1.734375 6.953125 -1.734375 C 7.972656 -1.734375 8.84375 -2 9.5625 -2.53125 C 10.289062 -3.0625 10.65625 -3.820312 10.65625 -4.8125 C 10.65625 -5.570312 10.4375 -6.191406 10 -6.671875 C 9.570312 -7.160156 9.007812 -7.570312 8.3125 -7.90625 C 7.625 -8.238281 6.898438 -8.550781 6.140625 -8.84375 C 5.378906 -9.144531 4.65625 -9.5 3.96875 -9.90625 C 3.28125 -10.320312 2.71875 -10.84375 2.28125 -11.46875 C 1.851562 -12.09375 1.640625 -12.898438 1.640625 -13.890625 C 1.640625 -14.898438 1.867188 -15.769531 2.328125 -16.5 C 2.796875 -17.226562 3.421875 -17.789062 4.203125 -18.1875 C 4.984375 -18.582031 5.847656 -18.78125 6.796875 -18.78125 C 7.867188 -18.78125 8.832031 -18.554688 9.6875 -18.109375 C 10.539062 -17.671875 11.222656 -17.117188 11.734375 -16.453125 L 10.1875 -15.15625 C 9.425781 -16.25 8.316406 -16.796875 6.859375 -16.796875 C 5.992188 -16.796875 5.234375 -16.566406 4.578125 -16.109375 C 3.929688 -15.660156 3.609375 -14.972656 3.609375 -14.046875 C 3.609375 -13.304688 3.820312 -12.707031 4.25 -12.25 C 4.6875 -11.800781 5.25 -11.414062 5.9375 -11.09375 C 6.632812 -10.78125 7.363281 -10.472656 8.125 -10.171875 C 8.882812 -9.878906 9.609375 -9.519531 10.296875 -9.09375 C 10.984375 -8.664062 11.539062 -8.117188 11.96875 -7.453125 C 12.40625 -6.785156 12.625 -5.925781 12.625 -4.875 C 12.625 -3.800781 12.363281 -2.878906 11.84375 -2.109375 C 11.332031 -1.335938 10.644531 -0.75 9.78125 -0.34375 C 8.914062 0.0507812 7.960938 0.25 6.921875 0.25 Z M 6.921875 0.25 "/></g></g></g><g fill="#151717" fill-opacity="1"><g transform="translate(185.51551, 248.546439)"><g><path d="M 12.5 -18.53125 L 12.5 -16.546875 L 7.375 -16.546875 L 7.375 0 L 5.40625 0 L 5.40625 -16.546875 L 0.28125 -16.546875 L 0.28125 -18.53125 Z M 12.5 -18.53125 "/></g></g></g><g fill="#151717" fill-opacity="1"><g transform="translate(207.852166, 248.546439)"><g><path d="M 9.75 -8.453125 L 15.21875 0 L 12.96875 0 L 7.71875 -8.375 L 4.234375 -8.375 L 4.234375 0 L 2.25 0 L 2.25 -18.53125 L 8.890625 -18.53125 C 9.835938 -18.53125 10.703125 -18.296875 11.484375 -17.828125 C 12.265625 -17.367188 12.882812 -16.75 13.34375 -15.96875 C 13.8125 -15.1875 14.046875 -14.3125 14.046875 -13.34375 C 14.046875 -12.519531 13.851562 -11.753906 13.46875 -11.046875 C 13.09375 -10.347656 12.585938 -9.769531 11.953125 -9.3125 C 11.316406 -8.863281 10.582031 -8.578125 9.75 -8.453125 Z M 4.234375 -10.25 L 8.765625 -10.25 C 9.710938 -10.25 10.5 -10.535156 11.125 -11.109375 C 11.757812 -11.691406 12.078125 -12.457031 12.078125 -13.40625 C 12.078125 -14.332031 11.753906 -15.085938 11.109375 -15.671875 C 10.472656 -16.253906 9.691406 -16.546875 8.765625 -16.546875 L 4.234375 -16.546875 Z M 4.234375 -10.25 "/></g></g></g><g fill="#151717" fill-opacity="1"><g transform="translate(232.904861, 248.546439)"><g><path d="M 9.109375 0.25 C 7.773438 0.25 6.582031 -0.0195312 5.53125 -0.5625 C 4.476562 -1.113281 3.648438 -1.867188 3.046875 -2.828125 C 2.453125 -3.785156 2.15625 -4.867188 2.15625 -6.078125 L 2.15625 -18.53125 L 4.140625 -18.53125 L 4.140625 -6.390625 C 4.140625 -5.503906 4.351562 -4.707031 4.78125 -4 C 5.21875 -3.289062 5.8125 -2.734375 6.5625 -2.328125 C 7.3125 -1.929688 8.160156 -1.734375 9.109375 -1.734375 C 10.078125 -1.734375 10.9375 -1.929688 11.6875 -2.328125 C 12.4375 -2.734375 13.023438 -3.289062 13.453125 -4 C 13.890625 -4.707031 14.109375 -5.503906 14.109375 -6.390625 L 14.109375 -18.53125 L 16.09375 -18.53125 L 16.09375 -6.078125 C 16.09375 -4.867188 15.789062 -3.785156 15.1875 -2.828125 C 14.59375 -1.867188 13.769531 -1.113281 12.71875 -0.5625 C 11.664062 -0.0195312 10.460938 0.25 9.109375 0.25 Z M 9.109375 0.25 "/></g></g></g><g fill="#151717" fill-opacity="1"><g transform="translate(260.704481, 248.546439)"><g><path d="M 11.03125 0.25 C 9.707031 0.25 8.472656 0.00390625 7.328125 -0.484375 C 6.191406 -0.984375 5.1875 -1.671875 4.3125 -2.546875 C 3.4375 -3.421875 2.75 -4.425781 2.25 -5.5625 C 1.757812 -6.707031 1.515625 -7.941406 1.515625 -9.265625 C 1.515625 -10.578125 1.757812 -11.804688 2.25 -12.953125 C 2.75 -14.097656 3.4375 -15.109375 4.3125 -15.984375 C 5.1875 -16.859375 6.191406 -17.539062 7.328125 -18.03125 C 8.472656 -18.53125 9.707031 -18.78125 11.03125 -18.78125 C 12.789062 -18.78125 14.398438 -18.335938 15.859375 -17.453125 C 17.328125 -16.566406 18.472656 -15.398438 19.296875 -13.953125 L 17.59375 -13 C 16.957031 -14.15625 16.054688 -15.078125 14.890625 -15.765625 C 13.734375 -16.453125 12.445312 -16.796875 11.03125 -16.796875 C 9.644531 -16.796875 8.378906 -16.460938 7.234375 -15.796875 C 6.097656 -15.128906 5.1875 -14.222656 4.5 -13.078125 C 3.820312 -11.929688 3.484375 -10.660156 3.484375 -9.265625 C 3.484375 -7.859375 3.820312 -6.582031 4.5 -5.4375 C 5.1875 -4.300781 6.097656 -3.398438 7.234375 -2.734375 C 8.378906 -2.066406 9.644531 -1.734375 11.03125 -1.734375 C 12.445312 -1.734375 13.734375 -2.082031 14.890625 -2.78125 C 16.054688 -3.476562 16.957031 -4.394531 17.59375 -5.53125 L 19.296875 -4.5625 C 18.472656 -3.125 17.328125 -1.960938 15.859375 -1.078125 C 14.398438 -0.191406 12.789062 0.25 11.03125 0.25 Z M 11.03125 0.25 "/></g></g></g><g fill="#151717" fill-opacity="1"><g transform="translate(290.572002, 248.546439)"><g><path d="M 12.5 -18.53125 L 12.5 -16.546875 L 7.375 -16.546875 L 7.375 0 L 5.40625 0 L 5.40625 -16.546875 L 0.28125 -16.546875 L 0.28125 -18.53125 Z M 12.5 -18.53125 "/></g></g></g><g fill="#151717" fill-opacity="1"><g transform="translate(123.699056, 264.858694)"><g><path d="M 5.09375 0.109375 C 4.488281 0.109375 3.921875 -0.00390625 3.390625 -0.234375 C 2.859375 -0.460938 2.390625 -0.773438 1.984375 -1.171875 C 1.585938 -1.578125 1.273438 -2.046875 1.046875 -2.578125 C 0.816406 -3.109375 0.703125 -3.675781 0.703125 -4.28125 C 0.703125 -4.894531 0.816406 -5.460938 1.046875 -5.984375 C 1.273438 -6.515625 1.585938 -6.984375 1.984375 -7.390625 C 2.390625 -7.796875 2.859375 -8.113281 3.390625 -8.34375 C 3.921875 -8.570312 4.488281 -8.6875 5.09375 -8.6875 C 5.914062 -8.6875 6.664062 -8.476562 7.34375 -8.0625 C 8.019531 -7.65625 8.546875 -7.117188 8.921875 -6.453125 L 8.140625 -6.015625 C 7.847656 -6.546875 7.429688 -6.96875 6.890625 -7.28125 C 6.347656 -7.601562 5.75 -7.765625 5.09375 -7.765625 C 4.457031 -7.765625 3.875 -7.609375 3.34375 -7.296875 C 2.820312 -6.992188 2.398438 -6.578125 2.078125 -6.046875 C 1.765625 -5.515625 1.609375 -4.925781 1.609375 -4.28125 C 1.609375 -3.632812 1.765625 -3.046875 2.078125 -2.515625 C 2.398438 -1.992188 2.820312 -1.578125 3.34375 -1.265625 C 3.875 -0.953125 4.457031 -0.796875 5.09375 -0.796875 C 5.75 -0.796875 6.347656 -0.957031 6.890625 -1.28125 C 7.429688 -1.601562 7.847656 -2.03125 8.140625 -2.5625 L 8.921875 -2.109375 C 8.546875 -1.441406 8.019531 -0.90625 7.34375 -0.5 C 6.664062 -0.09375 5.914062 0.109375 5.09375 0.109375 Z M 5.09375 0.109375 "/></g></g></g><g fill="#151717" fill-opacity="1"><g transform="translate(142.220466, 264.858694)"><g><path d="M 5.09375 0.109375 C 4.488281 0.109375 3.921875 -0.00390625 3.390625 -0.234375 C 2.859375 -0.460938 2.390625 -0.773438 1.984375 -1.171875 C 1.585938 -1.578125 1.273438 -2.046875 1.046875 -2.578125 C 0.816406 -3.109375 0.703125 -3.675781 0.703125 -4.28125 C 0.703125 -4.894531 0.816406 -5.460938 1.046875 -5.984375 C 1.273438 -6.515625 1.585938 -6.984375 1.984375 -7.390625 C 2.390625 -7.796875 2.859375 -8.113281 3.390625 -8.34375 C 3.921875 -8.570312 4.488281 -8.6875 5.09375 -8.6875 C 5.707031 -8.6875 6.28125 -8.570312 6.8125 -8.34375 C 7.34375 -8.113281 7.804688 -7.796875 8.203125 -7.390625 C 8.609375 -6.984375 8.925781 -6.515625 9.15625 -5.984375 C 9.382812 -5.460938 9.5 -4.894531 9.5 -4.28125 C 9.5 -3.675781 9.382812 -3.109375 9.15625 -2.578125 C 8.925781 -2.046875 8.609375 -1.578125 8.203125 -1.171875 C 7.804688 -0.773438 7.34375 -0.460938 6.8125 -0.234375 C 6.28125 -0.00390625 5.707031 0.109375 5.09375 0.109375 Z M 5.09375 -0.796875 C 5.738281 -0.796875 6.328125 -0.953125 6.859375 -1.265625 C 7.390625 -1.578125 7.804688 -1.992188 8.109375 -2.515625 C 8.421875 -3.046875 8.578125 -3.632812 8.578125 -4.28125 C 8.578125 -4.925781 8.421875 -5.515625 8.109375 -6.046875 C 7.804688 -6.578125 7.390625 -6.992188 6.859375 -7.296875 C 6.328125 -7.609375 5.738281 -7.765625 5.09375 -7.765625 C 4.457031 -7.765625 3.875 -7.609375 3.34375 -7.296875 C 2.820312 -6.992188 2.398438 -6.578125 2.078125 -6.046875 C 1.765625 -5.515625 1.609375 -4.925781 1.609375 -4.28125 C 1.609375 -3.632812 1.765625 -3.046875 2.078125 -2.515625 C 2.398438 -1.992188 2.820312 -1.578125 3.34375 -1.265625 C 3.875 -0.953125 4.457031 -0.796875 5.09375 -0.796875 Z M 5.09375 -0.796875 "/></g></g></g><g fill="#151717" fill-opacity="1"><g transform="translate(161.554822, 264.858694)"><g><path d="M 7.203125 -8.5625 L 8.09375 -8.5625 L 8.09375 0 L 7.234375 0 L 1.953125 -7.03125 L 1.953125 0 L 1.046875 0 L 1.046875 -8.5625 L 1.90625 -8.5625 L 7.203125 -1.53125 Z M 7.203125 -8.5625 "/></g></g></g><g fill="#151717" fill-opacity="1"><g transform="translate(179.819517, 264.858694)"><g><path d="M 5.09375 0.109375 C 4.488281 0.109375 3.921875 -0.00390625 3.390625 -0.234375 C 2.859375 -0.460938 2.390625 -0.773438 1.984375 -1.171875 C 1.585938 -1.578125 1.273438 -2.046875 1.046875 -2.578125 C 0.816406 -3.109375 0.703125 -3.675781 0.703125 -4.28125 C 0.703125 -4.894531 0.816406 -5.460938 1.046875 -5.984375 C 1.273438 -6.515625 1.585938 -6.984375 1.984375 -7.390625 C 2.390625 -7.796875 2.859375 -8.113281 3.390625 -8.34375 C 3.921875 -8.570312 4.488281 -8.6875 5.09375 -8.6875 C 5.914062 -8.6875 6.664062 -8.476562 7.34375 -8.0625 C 8.019531 -7.65625 8.546875 -7.117188 8.921875 -6.453125 L 8.140625 -6.015625 C 7.847656 -6.546875 7.429688 -6.96875 6.890625 -7.28125 C 6.347656 -7.601562 5.75 -7.765625 5.09375 -7.765625 C 4.457031 -7.765625 3.875 -7.609375 3.34375 -7.296875 C 2.820312 -6.992188 2.398438 -6.578125 2.078125 -6.046875 C 1.765625 -5.515625 1.609375 -4.925781 1.609375 -4.28125 C 1.609375 -3.632812 1.765625 -3.046875 2.078125 -2.515625 C 2.398438 -1.992188 2.820312 -1.578125 3.34375 -1.265625 C 3.875 -0.953125 4.457031 -0.796875 5.09375 -0.796875 C 5.75 -0.796875 6.347656 -0.957031 6.890625 -1.28125 C 7.429688 -1.601562 7.847656 -2.03125 8.140625 -2.5625 L 8.921875 -2.109375 C 8.546875 -1.441406 8.019531 -0.90625 7.34375 -0.5 C 6.664062 -0.09375 5.914062 0.109375 5.09375 0.109375 Z M 5.09375 0.109375 "/></g></g></g><g fill="#151717" fill-opacity="1"><g transform="translate(198.340928, 264.858694)"><g><path d="M 5.796875 -7.6875 L 2.03125 -7.6875 L 2.03125 -4.71875 L 5.3125 -4.71875 L 5.3125 -3.84375 L 2.03125 -3.84375 L 2.03125 -0.890625 L 5.796875 -0.890625 L 5.796875 0 L 1.109375 0 L 1.109375 -8.5625 L 5.796875 -8.5625 Z M 5.796875 -7.6875 "/></g></g></g><g fill="#151717" fill-opacity="1"><g transform="translate(214.124019, 264.858694)"><g><path d="M 4.109375 -8.5625 C 4.554688 -8.5625 4.957031 -8.453125 5.3125 -8.234375 C 5.675781 -8.023438 5.960938 -7.738281 6.171875 -7.375 C 6.390625 -7.019531 6.5 -6.625 6.5 -6.1875 C 6.5 -5.75 6.390625 -5.347656 6.171875 -4.984375 C 5.960938 -4.617188 5.675781 -4.332031 5.3125 -4.125 C 4.957031 -3.914062 4.554688 -3.8125 4.109375 -3.8125 L 1.953125 -3.8125 L 1.953125 0 L 1.046875 0 L 1.046875 -8.5625 Z M 4.03125 -4.6875 C 4.457031 -4.6875 4.820312 -4.816406 5.125 -5.078125 C 5.425781 -5.335938 5.578125 -5.703125 5.578125 -6.171875 C 5.578125 -6.628906 5.425781 -6.992188 5.125 -7.265625 C 4.820312 -7.546875 4.457031 -7.6875 4.03125 -7.6875 L 1.953125 -7.6875 L 1.953125 -4.6875 Z M 4.03125 -4.6875 "/></g></g></g><g fill="#151717" fill-opacity="1"><g transform="translate(229.992689, 264.858694)"><g><path d="M 5.78125 -8.5625 L 5.78125 -7.65625 L 3.40625 -7.65625 L 3.40625 0 L 2.5 0 L 2.5 -7.65625 L 0.125 -7.65625 L 0.125 -8.5625 Z M 5.78125 -8.5625 "/></g></g></g><g fill="#151717" fill-opacity="1"><g transform="translate(245.034145, 264.858694)"><g><path d="M 3.203125 0.109375 C 2.554688 0.109375 1.984375 -0.046875 1.484375 -0.359375 C 0.992188 -0.679688 0.632812 -1.101562 0.40625 -1.625 L 1.234375 -2.109375 C 1.390625 -1.722656 1.632812 -1.40625 1.96875 -1.15625 C 2.3125 -0.914062 2.726562 -0.796875 3.21875 -0.796875 C 3.6875 -0.796875 4.085938 -0.921875 4.421875 -1.171875 C 4.753906 -1.421875 4.921875 -1.773438 4.921875 -2.234375 C 4.921875 -2.578125 4.820312 -2.859375 4.625 -3.078125 C 4.425781 -3.304688 4.164062 -3.5 3.84375 -3.65625 C 3.53125 -3.8125 3.195312 -3.957031 2.84375 -4.09375 C 2.488281 -4.226562 2.148438 -4.390625 1.828125 -4.578125 C 1.515625 -4.773438 1.253906 -5.015625 1.046875 -5.296875 C 0.847656 -5.585938 0.75 -5.960938 0.75 -6.421875 C 0.75 -6.890625 0.859375 -7.289062 1.078125 -7.625 C 1.296875 -7.96875 1.582031 -8.226562 1.9375 -8.40625 C 2.300781 -8.59375 2.703125 -8.6875 3.140625 -8.6875 C 3.640625 -8.6875 4.082031 -8.582031 4.46875 -8.375 C 4.863281 -8.164062 5.179688 -7.910156 5.421875 -7.609375 L 4.71875 -7.015625 C 4.363281 -7.515625 3.847656 -7.765625 3.171875 -7.765625 C 2.765625 -7.765625 2.410156 -7.660156 2.109375 -7.453125 C 1.816406 -7.242188 1.671875 -6.925781 1.671875 -6.5 C 1.671875 -6.15625 1.769531 -5.878906 1.96875 -5.671875 C 2.164062 -5.460938 2.425781 -5.28125 2.75 -5.125 C 3.070312 -4.976562 3.40625 -4.835938 3.75 -4.703125 C 4.101562 -4.566406 4.4375 -4.398438 4.75 -4.203125 C 5.070312 -4.003906 5.332031 -3.75 5.53125 -3.4375 C 5.738281 -3.132812 5.84375 -2.738281 5.84375 -2.25 C 5.84375 -1.757812 5.722656 -1.332031 5.484375 -0.96875 C 5.242188 -0.613281 4.921875 -0.34375 4.515625 -0.15625 C 4.117188 0.0195312 3.679688 0.109375 3.203125 0.109375 Z M 3.203125 0.109375 "/></g></g></g><g clip-path="url(#50f06aed8c)"><path fill="#101929" d="M 235.046875 154.53125 L 181.238281 134.605469 L 181.238281 171.273438 L 235.046875 171.167969 Z M 221.671875 150.417969 L 232.449219 154.410156 L 221.671875 154.410156 Z M 193.175781 170.460938 L 182.03125 170.484375 L 182.03125 155.199219 L 193.175781 155.199219 Z M 193.175781 154.410156 L 182.03125 154.410156 L 182.03125 135.738281 L 193.175781 139.867188 Z M 207.746094 170.433594 L 193.96875 170.460938 L 193.96875 155.199219 L 207.746094 155.199219 Z M 207.746094 154.410156 L 193.96875 154.410156 L 193.96875 140.160156 L 207.746094 145.261719 Z M 220.878906 170.40625 L 208.539062 170.429688 L 208.539062 155.199219 L 220.878906 155.199219 Z M 220.878906 154.410156 L 208.539062 154.410156 L 208.539062 145.554688 L 220.878906 150.125 Z M 234.253906 170.382812 L 221.671875 170.40625 L 221.671875 155.199219 L 234.253906 155.199219 Z M 182.464844 200.085938 L 188.050781 200.085938 C 188.269531 200.085938 188.445312 199.90625 188.445312 199.691406 L 188.445312 186.765625 C 188.445312 186.546875 188.269531 186.371094 188.050781 186.371094 L 182.464844 186.371094 C 182.25 186.371094 182.070312 186.546875 182.070312 186.765625 L 182.070312 199.691406 C 182.070312 199.90625 182.25 200.085938 182.464844 200.085938 Z M 182.863281 187.160156 L 186.117188 187.160156 L 186.117188 190.074219 L 182.863281 190.074219 Z M 182.863281 190.859375 L 186.117188 190.859375 L 186.117188 199.296875 L 182.863281 199.296875 Z M 192.78125 200.085938 L 198.367188 200.085938 C 198.585938 200.085938 198.761719 199.90625 198.761719 199.691406 L 198.761719 186.765625 C 198.761719 186.546875 198.585938 186.371094 198.367188 186.371094 L 192.78125 186.371094 C 192.5625 186.371094 192.386719 186.546875 192.386719 186.765625 L 192.386719 199.691406 C 192.386719 199.90625 192.5625 200.085938 192.78125 200.085938 Z M 193.179688 187.160156 L 196.429688 187.160156 L 196.429688 190.074219 L 193.179688 190.074219 Z M 193.179688 190.859375 L 196.429688 190.859375 L 196.429688 199.296875 L 193.179688 199.296875 Z M 202.164062 200.085938 L 207.75 200.085938 C 207.96875 200.085938 208.144531 199.90625 208.144531 199.691406 L 208.144531 186.765625 C 208.144531 186.546875 207.96875 186.371094 207.75 186.371094 L 202.164062 186.371094 C 201.945312 186.371094 201.769531 186.546875 201.769531 186.765625 L 201.769531 199.691406 C 201.769531 199.90625 201.945312 200.085938 202.164062 200.085938 Z M 202.5625 187.160156 L 205.8125 187.160156 L 205.8125 190.074219 L 202.5625 190.074219 Z M 202.5625 190.859375 L 205.8125 190.859375 L 205.8125 199.296875 L 202.5625 199.296875 Z M 211.960938 200.085938 L 217.546875 200.085938 C 217.765625 200.085938 217.941406 199.90625 217.941406 199.691406 L 217.941406 186.765625 C 217.941406 186.546875 217.765625 186.371094 217.546875 186.371094 L 211.960938 186.371094 C 211.742188 186.371094 211.566406 186.546875 211.566406 186.765625 L 211.566406 199.691406 C 211.566406 199.90625 211.742188 200.085938 211.960938 200.085938 Z M 212.359375 187.160156 L 215.609375 187.160156 L 215.609375 190.074219 L 212.359375 190.074219 Z M 212.359375 190.859375 L 215.609375 190.859375 L 215.609375 199.296875 L 212.359375 199.296875 Z M 150.300781 145.578125 C 150.167969 145.402344 150.199219 145.15625 150.375 145.027344 L 162.726562 135.710938 C 162.898438 135.578125 163.148438 135.613281 163.28125 135.789062 C 163.414062 135.960938 163.378906 136.207031 163.203125 136.339844 L 150.855469 145.652344 C 150.78125 145.707031 150.699219 145.734375 150.613281 145.734375 C 150.496094 145.734375 150.375 145.679688 150.300781 145.578125 Z M 150.300781 143.121094 C 150.167969 142.949219 150.199219 142.703125 150.375 142.570312 L 154.136719 139.734375 C 154.3125 139.601562 154.558594 139.636719 154.691406 139.808594 C 154.824219 139.984375 154.789062 140.230469 154.617188 140.363281 L 150.855469 143.199219 C 150.78125 143.253906 150.699219 143.277344 150.613281 143.277344 C 150.496094 143.277344 150.375 143.226562 150.300781 143.121094 Z M 162.242188 139.808594 C 162.375 139.984375 162.339844 140.230469 162.164062 140.363281 L 159.441406 142.414062 C 159.371094 142.46875 159.285156 142.496094 159.203125 142.496094 C 159.082031 142.496094 158.964844 142.441406 158.886719 142.339844 C 158.753906 142.164062 158.789062 141.917969 158.964844 141.785156 L 161.6875 139.734375 C 161.859375 139.601562 162.109375 139.636719 162.242188 139.808594 Z M 150.828125 191.128906 C 150.695312 190.953125 150.730469 190.707031 150.902344 190.574219 L 163.253906 181.261719 C 163.429688 181.128906 163.675781 181.164062 163.808594 181.335938 C 163.941406 181.511719 163.90625 181.757812 163.734375 181.890625 L 151.382812 191.203125 C 151.308594 191.257812 151.226562 191.285156 151.144531 191.285156 C 151.023438 191.285156 150.90625 191.230469 150.828125 191.128906 Z M 156.460938 183.285156 C 156.328125 183.113281 156.363281 182.867188 156.539062 182.734375 L 160.300781 179.898438 C 160.472656 179.765625 160.722656 179.800781 160.855469 179.972656 C 160.988281 180.148438 160.953125 180.394531 160.777344 180.527344 L 157.015625 183.363281 C 156.945312 183.417969 156.859375 183.441406 156.777344 183.441406 C 156.65625 183.441406 156.539062 183.390625 156.460938 183.285156 Z M 152.386719 186.097656 C 152.253906 185.925781 152.289062 185.675781 152.460938 185.546875 L 154.34375 184.128906 C 154.515625 183.996094 154.765625 184.03125 154.898438 184.203125 C 155.03125 184.375 154.996094 184.625 154.820312 184.753906 L 152.941406 186.175781 C 152.867188 186.226562 152.785156 186.253906 152.703125 186.253906 C 152.582031 186.253906 152.464844 186.199219 152.386719 186.097656 Z M 162.769531 185.359375 C 162.902344 185.535156 162.867188 185.78125 162.691406 185.910156 L 159.972656 187.964844 C 159.898438 188.019531 159.816406 188.042969 159.730469 188.042969 C 159.613281 188.042969 159.492188 187.992188 159.414062 187.890625 C 159.285156 187.714844 159.316406 187.46875 159.492188 187.335938 L 162.214844 185.285156 C 162.390625 185.152344 162.636719 185.1875 162.769531 185.359375 Z M 183.402344 165.46875 C 183.269531 165.292969 183.304688 165.046875 183.476562 164.914062 L 191.472656 158.886719 C 191.648438 158.753906 191.894531 158.789062 192.027344 158.960938 C 192.160156 159.136719 192.125 159.382812 191.953125 159.511719 L 183.957031 165.542969 C 183.886719 165.597656 183.800781 165.621094 183.71875 165.621094 C 183.597656 165.621094 183.480469 165.570312 183.402344 165.46875 Z M 184.410156 162.210938 C 184.277344 162.039062 184.3125 161.789062 184.488281 161.660156 L 185.703125 160.742188 C 185.878906 160.609375 186.128906 160.644531 186.261719 160.816406 C 186.390625 160.988281 186.359375 161.238281 186.183594 161.367188 L 184.964844 162.285156 C 184.894531 162.339844 184.808594 162.367188 184.726562 162.367188 C 184.605469 162.367188 184.488281 162.3125 184.410156 162.210938 Z M 191.355469 161.566406 C 191.488281 161.738281 191.453125 161.984375 191.277344 162.117188 L 189.515625 163.445312 C 189.445312 163.5 189.363281 163.527344 189.277344 163.527344 C 189.160156 163.527344 189.039062 163.472656 188.960938 163.371094 C 188.828125 163.195312 188.863281 162.949219 189.039062 162.820312 L 190.800781 161.488281 C 190.976562 161.359375 191.222656 161.390625 191.355469 161.566406 Z M 195.90625 152.535156 C 195.773438 152.359375 195.808594 152.113281 195.980469 151.980469 L 203.976562 145.953125 C 204.152344 145.820312 204.398438 145.855469 204.53125 146.027344 C 204.664062 146.203125 204.628906 146.449219 204.457031 146.578125 L 196.460938 152.609375 C 196.390625 152.664062 196.304688 152.691406 196.222656 152.691406 C 196.101562 152.691406 195.984375 152.636719 195.90625 152.535156 Z M 196.914062 149.277344 C 196.78125 149.105469 196.816406 148.855469 196.992188 148.726562 L 198.207031 147.808594 C 198.382812 147.675781 198.632812 147.710938 198.761719 147.882812 C 198.894531 148.058594 198.863281 148.304688 198.6875 148.433594 L 197.46875 149.355469 C 197.398438 149.40625 197.3125 149.433594 197.230469 149.433594 C 197.109375 149.433594 196.992188 149.378906 196.914062 149.277344 Z M 203.859375 148.632812 C 203.992188 148.804688 203.957031 149.050781 203.78125 149.183594 L 202.019531 150.511719 C 201.949219 150.566406 201.863281 150.59375 201.78125 150.59375 C 201.660156 150.59375 201.542969 150.539062 201.464844 150.4375 C 201.332031 150.261719 201.367188 150.015625 201.542969 149.886719 L 203.304688 148.554688 C 203.476562 148.425781 203.726562 148.457031 203.859375 148.632812 Z M 210.515625 165.722656 C 210.382812 165.546875 210.414062 165.300781 210.589844 165.167969 L 218.585938 159.140625 C 218.757812 159.007812 219.007812 159.042969 219.140625 159.214844 C 219.273438 159.386719 219.238281 159.636719 219.0625 159.765625 L 211.070312 165.796875 C 210.996094 165.851562 210.914062 165.875 210.828125 165.875 C 210.710938 165.875 210.589844 165.824219 210.515625 165.722656 Z M 211.523438 162.464844 C 211.390625 162.292969 211.425781 162.042969 211.597656 161.914062 L 212.816406 160.996094 C 212.992188 160.863281 213.238281 160.898438 213.371094 161.070312 C 213.503906 161.242188 213.46875 161.492188 213.296875 161.621094 L 212.078125 162.539062 C 212.007812 162.59375 211.921875 162.621094 211.839844 162.621094 C 211.71875 162.621094 211.601562 162.566406 211.523438 162.464844 Z M 218.46875 161.820312 C 218.597656 161.992188 218.566406 162.238281 218.390625 162.371094 L 216.628906 163.699219 C 216.558594 163.753906 216.472656 163.78125 216.390625 163.78125 C 216.269531 163.78125 216.152344 163.726562 216.074219 163.625 C 215.941406 163.449219 215.976562 163.203125 216.148438 163.074219 L 217.914062 161.742188 C 218.085938 161.613281 218.335938 161.644531 218.46875 161.820312 Z M 267.914062 190.984375 C 267.914062 185.628906 263.535156 181.269531 258.152344 181.269531 C 252.769531 181.269531 248.390625 185.628906 248.390625 190.984375 C 248.390625 196.289062 252.695312 200.613281 258.011719 200.691406 L 258.011719 213.394531 L 242.582031 213.394531 L 242.582031 183.441406 L 246.148438 183.441406 L 246.148438 173.0625 L 238.382812 173.0625 L 238.382812 154.046875 L 244.757812 156.496094 L 244.757812 153.332031 L 178.277344 127.558594 L 178.277344 109.679688 L 180.378906 108.871094 L 180.378906 106.214844 L 131.105469 125.316406 L 131.105469 127.789062 L 132.855469 127.117188 L 132.855469 213.394531 L 118.574219 213.394531 L 118.574219 198.925781 C 124.625 198.871094 129.527344 193.960938 129.527344 187.929688 C 129.527344 181.863281 124.566406 176.929688 118.46875 176.929688 C 112.375 176.929688 107.414062 181.863281 107.414062 187.929688 C 107.414062 193.765625 112.007812 198.550781 117.785156 198.90625 L 117.785156 213.394531 L 114.976562 213.394531 C 114.757812 213.394531 114.578125 213.570312 114.578125 213.789062 C 114.578125 214.003906 114.757812 214.179688 114.976562 214.179688 L 260.292969 214.179688 C 260.511719 214.179688 260.691406 214.003906 260.691406 213.789062 C 260.691406 213.570312 260.511719 213.394531 260.292969 213.394531 L 258.804688 213.394531 L 258.804688 200.667969 C 263.882812 200.335938 267.914062 196.121094 267.914062 190.984375 Z M 121.839844 187.066406 C 121.851562 187.03125 121.855469 187 121.855469 186.964844 C 121.855469 187 121.851562 187.03125 121.839844 187.066406 Z M 121.855469 186.902344 C 121.855469 186.910156 121.855469 186.917969 121.855469 186.925781 C 121.855469 186.917969 121.855469 186.910156 121.855469 186.902344 Z M 121.445312 186.566406 C 121.546875 186.5625 121.648438 186.59375 121.730469 186.667969 C 121.648438 186.59375 121.546875 186.5625 121.445312 186.566406 Z M 121.757812 187.226562 C 121.789062 187.1875 121.8125 187.148438 121.832031 187.105469 C 121.8125 187.148438 121.789062 187.1875 121.757812 187.226562 L 118.574219 190.714844 Z M 118.574219 193.234375 L 121 190.464844 L 118.574219 193.234375 L 118.574219 198.140625 Z M 243.96875 153.871094 L 243.96875 155.347656 L 175.710938 129.140625 L 175.710938 127.410156 Z M 237.589844 153.742188 L 237.589844 173.0625 L 178.277344 173.0625 L 178.277344 130.972656 Z M 165.582031 202.304688 L 149.054688 202.304688 L 149.054688 166.578125 L 165.582031 166.578125 Z M 166.671875 160.472656 L 149.054688 160.472656 L 149.054688 125.40625 L 166.671875 118.882812 Z M 131.898438 126.640625 L 131.898438 125.855469 L 179.585938 107.367188 L 179.585938 108.332031 Z M 231.035156 213.394531 L 224.84375 213.394531 L 224.84375 187.464844 L 231.035156 187.464844 Z M 234.253906 213.394531 L 231.828125 213.394531 L 231.828125 187.464844 L 234.253906 187.464844 Z M 236.960938 213.394531 L 235.046875 213.394531 L 235.046875 187.464844 L 236.960938 187.464844 Z M 241.789062 213.394531 L 237.753906 213.394531 L 237.753906 187.070312 C 237.753906 186.855469 237.574219 186.679688 237.355469 186.679688 L 224.449219 186.679688 C 224.230469 186.679688 224.054688 186.855469 224.054688 187.070312 L 224.054688 213.394531 L 175.710938 213.394531 L 175.710938 183.441406 L 241.789062 183.441406 Z M 175.710938 182.65625 L 175.710938 173.851562 L 245.359375 173.851562 L 245.359375 182.65625 Z M 260.070312 182.265625 C 260.027344 182.257812 259.984375 182.246094 259.9375 182.238281 C 259.984375 182.246094 260.027344 182.257812 260.070312 182.265625 Z M 260.511719 182.375 C 260.457031 182.359375 260.40625 182.34375 260.355469 182.332031 C 260.40625 182.34375 260.457031 182.359375 260.511719 182.375 Z M 260.925781 182.496094 C 260.871094 182.480469 260.816406 182.460938 260.761719 182.445312 C 260.816406 182.460938 260.871094 182.480469 260.925781 182.496094 Z M 261.328125 182.636719 C 261.273438 182.617188 261.21875 182.597656 261.164062 182.578125 C 261.21875 182.597656 261.273438 182.617188 261.328125 182.636719 Z M 261.71875 182.796875 C 261.664062 182.773438 261.609375 182.75 261.554688 182.726562 C 261.609375 182.75 261.664062 182.773438 261.71875 182.796875 Z M 262.097656 182.972656 C 262.046875 182.945312 261.992188 182.921875 261.941406 182.898438 C 261.992188 182.921875 262.046875 182.945312 262.097656 182.972656 Z M 262.46875 183.160156 C 262.417969 183.136719 262.367188 183.109375 262.320312 183.082031 C 262.320312 183.085938 262.320312 183.085938 262.320312 183.085938 C 262.371094 183.109375 262.417969 183.136719 262.46875 183.160156 Z M 262.824219 183.367188 C 262.824219 183.367188 262.824219 183.367188 262.828125 183.371094 C 262.78125 183.34375 262.738281 183.316406 262.695312 183.292969 C 262.738281 183.316406 262.78125 183.34375 262.824219 183.367188 Z M 263.171875 183.589844 C 263.144531 183.570312 263.109375 183.550781 263.082031 183.53125 C 263.082031 183.53125 263.082031 183.535156 263.085938 183.535156 C 263.113281 183.554688 263.144531 183.570312 263.171875 183.589844 Z M 263.566406 183.875 C 263.570312 183.875 263.574219 183.878906 263.578125 183.882812 C 263.554688 183.863281 263.53125 183.847656 263.511719 183.828125 C 263.511719 183.832031 263.511719 183.832031 263.511719 183.832031 C 263.53125 183.84375 263.546875 183.859375 263.566406 183.875 Z M 263.941406 184.175781 C 263.945312 184.175781 263.945312 184.179688 263.949219 184.179688 C 263.910156 184.148438 263.871094 184.113281 263.835938 184.082031 C 263.871094 184.113281 263.90625 184.144531 263.941406 184.175781 Z M 264.265625 184.460938 C 264.265625 184.460938 264.269531 184.464844 264.269531 184.464844 C 264.230469 184.425781 264.1875 184.386719 264.144531 184.351562 C 264.148438 184.351562 264.148438 184.351562 264.148438 184.351562 C 264.1875 184.386719 264.226562 184.425781 264.265625 184.460938 Z M 264.851562 185.054688 C 264.851562 185.058594 264.851562 185.058594 264.851562 185.058594 C 264.8125 185.015625 264.773438 184.96875 264.730469 184.925781 C 264.734375 184.925781 264.734375 184.929688 264.734375 184.929688 C 264.773438 184.972656 264.8125 185.011719 264.851562 185.054688 Z M 265.121094 185.371094 C 265.121094 185.371094 265.121094 185.371094 265.121094 185.375 C 265.082031 185.328125 265.046875 185.28125 265.003906 185.234375 C 265.007812 185.234375 265.007812 185.238281 265.007812 185.238281 C 265.046875 185.28125 265.082031 185.324219 265.121094 185.371094 Z M 265.375 185.695312 C 265.375 185.699219 265.375 185.699219 265.375 185.699219 C 265.339844 185.652344 265.300781 185.601562 265.265625 185.554688 C 265.265625 185.558594 265.269531 185.558594 265.269531 185.5625 C 265.304688 185.605469 265.339844 185.652344 265.375 185.695312 Z M 265.613281 186.03125 C 265.613281 186.035156 265.613281 186.035156 265.613281 186.035156 C 265.582031 185.988281 265.546875 185.9375 265.511719 185.890625 C 265.515625 185.894531 265.515625 185.894531 265.519531 185.898438 C 265.550781 185.941406 265.582031 185.988281 265.613281 186.03125 Z M 265.832031 186.378906 C 265.832031 186.378906 265.835938 186.382812 265.835938 186.382812 C 265.808594 186.335938 265.777344 186.292969 265.75 186.246094 C 265.75 186.25 265.753906 186.253906 265.757812 186.257812 C 265.78125 186.300781 265.808594 186.339844 265.832031 186.378906 Z M 266.039062 186.738281 C 266.039062 186.738281 266.042969 186.738281 266.042969 186.742188 C 266.023438 186.707031 266.003906 186.671875 265.984375 186.636719 C 265.988281 186.652344 265.996094 186.664062 266.003906 186.675781 C 266.015625 186.695312 266.027344 186.714844 266.039062 186.738281 Z M 266.277344 187.210938 C 266.28125 187.21875 266.289062 187.230469 266.292969 187.238281 C 266.269531 187.195312 266.25 187.148438 266.226562 187.101562 C 266.230469 187.105469 266.230469 187.105469 266.230469 187.105469 C 266.246094 187.140625 266.261719 187.175781 266.277344 187.210938 Z M 266.460938 187.628906 C 266.464844 187.632812 266.464844 187.640625 266.46875 187.644531 C 266.445312 187.589844 266.425781 187.535156 266.402344 187.480469 C 266.402344 187.480469 266.402344 187.480469 266.402344 187.484375 C 266.421875 187.53125 266.441406 187.578125 266.460938 187.628906 Z M 266.613281 188.03125 C 266.617188 188.035156 266.617188 188.039062 266.621094 188.042969 C 266.597656 187.984375 266.578125 187.921875 266.554688 187.863281 C 266.554688 187.867188 266.558594 187.867188 266.558594 187.871094 C 266.578125 187.921875 266.597656 187.976562 266.613281 188.03125 Z M 266.746094 188.4375 C 266.75 188.4375 266.75 188.441406 266.75 188.445312 C 266.730469 188.382812 266.714844 188.320312 266.691406 188.257812 C 266.695312 188.261719 266.695312 188.261719 266.695312 188.265625 C 266.714844 188.320312 266.730469 188.378906 266.746094 188.4375 Z M 266.859375 188.84375 C 266.859375 188.847656 266.859375 188.851562 266.863281 188.855469 C 266.847656 188.789062 266.828125 188.726562 266.8125 188.664062 C 266.8125 188.664062 266.8125 188.667969 266.816406 188.671875 C 266.832031 188.726562 266.84375 188.785156 266.859375 188.84375 Z M 266.953125 189.261719 C 266.953125 189.265625 266.953125 189.265625 266.953125 189.269531 C 266.941406 189.203125 266.925781 189.136719 266.914062 189.074219 C 266.914062 189.078125 266.914062 189.082031 266.914062 189.085938 C 266.929688 189.144531 266.941406 189.203125 266.953125 189.261719 Z M 267.027344 189.683594 C 267.027344 189.6875 267.027344 189.6875 267.027344 189.691406 C 267.015625 189.625 267.003906 189.558594 266.996094 189.492188 C 266.996094 189.496094 266.996094 189.503906 266.996094 189.507812 C 267.007812 189.566406 267.015625 189.625 267.027344 189.683594 Z M 267.078125 190.109375 C 267.078125 190.113281 267.078125 190.117188 267.078125 190.117188 C 267.074219 190.050781 267.0625 189.984375 267.054688 189.917969 C 267.058594 189.925781 267.058594 189.933594 267.058594 189.941406 C 267.066406 190 267.074219 190.054688 267.078125 190.109375 Z M 267.109375 190.542969 C 267.109375 190.546875 267.109375 190.546875 267.109375 190.550781 C 267.109375 190.488281 267.101562 190.421875 267.097656 190.359375 C 267.097656 190.375 267.101562 190.386719 267.101562 190.398438 C 267.105469 190.449219 267.109375 190.496094 267.109375 190.542969 Z M 264.570312 184.757812 C 264.527344 184.714844 264.488281 184.671875 264.445312 184.632812 C 264.445312 184.632812 264.445312 184.632812 264.449219 184.632812 C 264.488281 184.671875 264.527344 184.714844 264.566406 184.753906 C 264.566406 184.753906 264.570312 184.753906 264.570312 184.757812 Z M 258.804688 199.878906 C 263.445312 199.546875 267.121094 195.683594 267.121094 190.980469 C 267.121094 190.9375 267.121094 190.894531 267.117188 190.851562 C 267.121094 190.894531 267.121094 190.9375 267.121094 190.984375 C 267.121094 195.683594 263.445312 199.546875 258.804688 199.878906 Z M 258.804688 199.878906 " fill-opacity="1" fill-rule="nonzero"/></g><g clip-path="url(#37592f005f)"><path fill="#6c744a" d="M 108.207031 187.929688 C 108.207031 193.332031 112.441406 197.761719 117.785156 198.117188 L 117.785156 190.5625 C 117.785156 190.464844 117.820312 190.367188 117.886719 190.296875 L 121.171875 186.695312 C 121.316406 186.535156 121.566406 186.523438 121.730469 186.667969 C 121.890625 186.816406 121.90625 187.0625 121.757812 187.226562 L 118.574219 190.714844 L 118.574219 192.035156 L 120.402344 189.949219 C 120.542969 189.785156 120.792969 189.769531 120.960938 189.910156 C 121.125 190.054688 121.140625 190.300781 121 190.464844 L 118.574219 193.234375 L 118.574219 198.140625 C 124.1875 198.082031 128.734375 193.523438 128.734375 187.929688 C 128.734375 182.296875 124.128906 177.71875 118.46875 177.71875 C 112.808594 177.71875 108.207031 182.296875 108.207031 187.929688 Z M 258.011719 199.902344 L 258.011719 195.660156 L 255.894531 193.242188 C 255.75 193.078125 255.769531 192.828125 255.933594 192.6875 C 256.097656 192.542969 256.347656 192.5625 256.492188 192.726562 L 258.011719 194.460938 L 258.011719 193.445312 L 255.226562 190.394531 C 255.082031 190.234375 255.09375 189.984375 255.253906 189.839844 C 255.417969 189.691406 255.667969 189.703125 255.816406 189.867188 L 258.699219 193.03125 C 258.765625 193.101562 258.804688 193.195312 258.804688 193.292969 L 258.804688 199.878906 C 263.445312 199.546875 267.121094 195.683594 267.121094 190.980469 C 267.121094 186.0625 263.097656 182.058594 258.152344 182.058594 C 253.207031 182.058594 249.183594 186.0625 249.183594 190.980469 C 249.183594 195.855469 253.132812 199.828125 258.011719 199.902344 Z M 258.011719 199.902344 " fill-opacity="1" fill-rule="nonzero"/></g></svg>